<?xml version="1.0" encoding="utf-8"?>
<?xml-stylesheet type="text/xsl" href="rss1.xsl"?>
<rss version="2.0" xmlns:atom="http://www.w3.org/2005/Atom" xmlns:content="http://purl.org/rss/1.0/modules/content/" xmlns:dc="http://purl.org/dc/elements/1.1/" xmlns:media="http://search.yahoo.com/mrss/">
<channel>
 <title>Getty</title>
 <link>http://www.gettyimg.com/</link>
 <atom:link href="http://www.gettyimg.com/" rel="self" type="application/rss+xml" />

 
                <item>
                <title><![CDATA[【Albums (lossy)】MP3 - The Last Guardian Soundtrack 2 CD (2016 - 2023) by Takeshi Furukawa]]></title>
                <link><![CDATA[https://sharemania.us/threads/the-last-guardian-soundtrack-2-cd-2016-2023-by-takeshi-furukawa.231173/]]></link>
                <description><![CDATA[<article>
<blockquote class="messageText SelectQuoteContainer ugc baseHtml">
<img src="https://i122.fastpic.org/big/2023/1022/7b/37e2dbe9b81a046659178f402771cd7b.jpg" class="bbCodeImage LbImage" alt="[​IMG]" data-url="https://i122.fastpic.org/big/2023/1022/7b/37e2dbe9b81a046659178f402771cd7b.jpg" style=""><br>
01:06:47<br>
<br>
01. Overture: Lore<br>
02. Panorama<br>
03. Forest<br>
04. Sentinel I<br>
05. The Tower<br>
06. Falling Bridge<br>
07. Hanging Gardens<br>
08. Sentinel II<br>
09. Victorious<br>
10. Alone<br>
11. The Nest<br>
12. Flashback<br>
13. Sanctuary<br>
14. Condor Clash<br>
15. Wounded<br>
16. Finale I: Apex<br>
17. Finale II: Escape<br>
18. End Titles: The Last Guardian Suite<br>
19. Epilogue<br>
20. Homeward<br>
21. The Cage<br>
22. Vanquished<br>
23. Mirrors<br>
24. Courtyard<br>
<br>
<img src="https://i122.fastpic.org/big/2023/1026/d0/5ca62d4c6316097300f3b58684e454d0.jpg" class="bbCodeImage LbImage" alt="[​IMG]" data-url="https://i122.fastpic.org/big/2023/1026/d0/5ca62d4c6316097300f3b58684e454d0.jpg" style=""><br>
01:06:57<br>
<br>
01. Overture: Lore (2023 Remaster)<br>
02. Panorama (2023 Remaster)<br>
03. Forest (2023 Remaster)<br>
04. Sentinel I (2023 Remaster)<br>
05. The Tower (2023 Remaster)<br>
06. Falling Bridge (2023 Remaster)<br>
07. Hanging Gardens (2023 Remaster)<br>
08. Sentinel II (2023 Remaster)<br>
09. Victorious (2023 Remaster)<br>
10. Alone (2023 Remaster)<br>
11. The Nest (2023 Remaster)<br>
12. Flashback (2023 Remaster)<br>
13. Sanctuary (2023 Remaster)<br>
14. Condor Clash (2023 Remaster)<br>
15. Wounded (2023 Remaster)<br>
16. Finale I: Apex (2023 Remaster)<br>
17. Finale II: Escape (2023 Remaster)<br>
18. End Titles: The Last Guardian Suit (2023 Remaster)<br>
19. Epilogue (2023 Remaster)<br>
20. Homeward (2023 Remaster)<br>
21. The Cage (2023 Remaster)<br>
22. Vanquished (2023 Remaster)<br>
23. Mirrors (2023 Remaster)<br>
24. Courtyard (2023 Remaster)<br>
<br>
<span data-s9e-mediaembed="googledrive" style="display:inline-block;width:100%;max-width:640px"><span style="display:block;overflow:hidden;position:relative;padding-bottom:75%"><iframe allowfullscreen="" loading="lazy" scrolling="no" src="//drive.google.com/file/d/1bTUB8_WPIs6QQrdzm5zcVRefx2IOQf-q/preview" style="border:0;height:100%;left:0;position:absolute;width:100%"></iframe></span></span>
<div class="messageTextEndMarker">&nbsp;</div>
</blockquote>
</article>]]></description>
                <author><![CDATA[Hoenheim Gontier]]></author>
                </item>

                
                <item>
                <title><![CDATA[【UPSCALED】EvoL - We are a bit different [4K.AI.UPSCALE.x265.10bit]]]></title>
                <link><![CDATA[https://sharemania.us/threads/evol-we-are-a-bit-different-4k-ai-upscale-x265-10bit.231174/]]></link>
                <description><![CDATA[<article>
<blockquote class="messageText SelectQuoteContainer ugc baseHtml">
<img src="https://i.imgur.com/DHZD7bK.jpg" class="bbCodeImage LbImage" alt="[​IMG]" data-url="https://i.imgur.com/DHZD7bK.jpg" style=""><br>
<br>
<div class="bbCodeBlock bbCodeCode">
<div class="type">Code:</div>
<pre>General
Format                                   : Matroska
Format version                           : Version 4
File size                                : 641 MiB
Duration                                 : 3 min 43 s
Overall bit rate                         : 24.0 Mb/s
Frame rate                               : 23.976 FPS

Video
ID                                       : 1
Format                                   : HEVC
Format/Info                              : High Efficiency Video Coding
Format profile                           : Main 10@L5.1@High
Codec ID                                 : V_MPEGH/ISO/HEVC
Duration                                 : 3 min 43 s
Bit rate                                 : 23.1 Mb/s
Width                                    : 3 840 pixels
Height                                   : 2 158 pixels
Display aspect ratio                     : 16:9
Frame rate mode                          : Constant
Frame rate                               : 23.976 (24000/1001) FPS
Color space                              : YUV
Chroma subsampling                       : 4:2:0 (Type 0)
Bit depth                                : 10 bits
Bits/(Pixel*Frame)                       : 0.116
Stream size                              : 616 MiB (96%)
Default                                  : Yes
Forced                                   : No
Color range                              : Limited
Color primaries                          : BT.709
Transfer characteristics                 : BT.709
Matrix coefficients                      : BT.709

Audio
ID                                       : 2
Format                                   : AC-3
Format/Info                              : Audio Coding 3
Commercial name                          : Dolby Digital
Codec ID                                 : A_AC3
Duration                                 : 3 min 43 s
Bit rate mode                            : Constant
Bit rate                                 : 448 kb/s
Channel(s)                               : 2 channels
Channel layout                           : L R
Sampling rate                            : 48.0 kHz
Frame rate                               : 31.250 FPS (1536 SPF)
Compression mode                         : Lossy
Delay relative to video                  : -5 ms
Stream size                              : 11.9 MiB (2%)
Title                                    : Stereo
Service kind                             : Complete Main
Default                                  : Yes
Forced                                   : No</pre>
</div><div style="text-align: center">
<div class="bbCodeBlock bbCodeVfcHH HiddenContent">
<div class="attribution type">Hidden Content:</div>
<blockquote>You must reply before you can see the hidden data contained here.</blockquote>
</div></div>
<div class="messageTextEndMarker">&nbsp;</div>
</blockquote>
</article>]]></description>
                <author><![CDATA[Librious]]></author>
                </item>

                
                <item>
                <title><![CDATA[【Albums (lossless)】FLAC - The Last Guardian Original Soundtrack (2023 Remaster) by akeshi Furukawa [24/96]]]></title>
                <link><![CDATA[https://sharemania.us/threads/the-last-guardian-original-soundtrack-2023-remaster-by-akeshi-furukawa-24-96.231172/]]></link>
                <description><![CDATA[<article>
<blockquote class="messageText SelectQuoteContainer ugc baseHtml">
<img src="https://i122.fastpic.org/big/2023/1026/d0/5ca62d4c6316097300f3b58684e454d0.jpg" class="bbCodeImage LbImage" alt="[​IMG]" data-url="https://i122.fastpic.org/big/2023/1026/d0/5ca62d4c6316097300f3b58684e454d0.jpg" style=""> <br>
01:06:57<br>
<br>
01. Overture: Lore (2023 Remaster)<br>
02. Panorama (2023 Remaster)<br>
03. Forest (2023 Remaster)<br>
04. Sentinel I (2023 Remaster)<br>
05. The Tower (2023 Remaster)<br>
06. Falling Bridge (2023 Remaster)<br>
07. Hanging Gardens (2023 Remaster)<br>
08. Sentinel II (2023 Remaster)<br>
09. Victorious (2023 Remaster)<br>
10. Alone (2023 Remaster)<br>
11. The Nest (2023 Remaster)<br>
12. Flashback (2023 Remaster)<br>
13. Sanctuary (2023 Remaster)<br>
14. Condor Clash (2023 Remaster)<br>
15. Wounded (2023 Remaster)<br>
16. Finale I: Apex (2023 Remaster)<br>
17. Finale II: Escape (2023 Remaster)<br>
18. End Titles: The Last Guardian Suit (2023 Remaster)<br>
19. Epilogue (2023 Remaster)<br>
20. Homeward (2023 Remaster)<br>
21. The Cage (2023 Remaster)<br>
22. Vanquished (2023 Remaster)<br>
23. Mirrors (2023 Remaster)<br>
24. Courtyard (2023 Remaster)<br>
<br>
<span data-s9e-mediaembed="googledrive" style="display:inline-block;width:100%;max-width:640px"><span style="display:block;overflow:hidden;position:relative;padding-bottom:75%"><iframe allowfullscreen="" loading="lazy" scrolling="no" src="//drive.google.com/file/d/1Oigxc4-WblGwlA9EgQkkqkbKOY5fXLPI/preview" style="border:0;height:100%;left:0;position:absolute;width:100%"></iframe></span></span>
<div class="messageTextEndMarker">&nbsp;</div>
</blockquote>
</article>]]></description>
                <author><![CDATA[Hoenheim Gontier]]></author>
                </item>

                </channel></rss>